<svg aria-hidden="true" xmlns="http://www.w3.org/2000/svg" viewBox="0 0 67 83">
  <path d="M55.09999695 20.46616459c-1.3 1-1.5 2.9-.5 4.2 3.8 4.8 5.8 10.7 5.8 16.8 0 15-12.2 27.3-27.2 27.3-1.4 0-2.9-.1-4.3-.3l2.9-2.8c1.2-1.2 1.2-3.1 0-4.2-1.2-1.2-3.1-1.2-4.2 0l-10 9.8 9.9 10.9c.6.7 1.4 1 2.2 1 .7 0 1.4-.3 2-.8 1.2-1.1 1.3-3 .2-4.2l-3.1-3.7c1.4.2 2.9.3 4.4.3 18.3 0 33.3-14.9 33.3-33.3 0-7.5-2.5-14.6-7.1-20.5-1.1-1.3-3-1.6-4.3-.5zM9.09999695 62.76616459c.6 0 1.3-.2 1.8-.6 1.3-1 1.6-2.9.6-4.2-3.7-4.8-5.6-10.5-5.6-16.5 0-15 12.2-27.3 27.3-27.3 1.3 0 2.6.1 3.9.3l-2.9 2.8c-1.2 1.2-1.2 3.1 0 4.2.6.6 1.4.9 2.1.9.8 0 1.5-.3 2.1-.9l10-9.8-9.8-10.7c-1.1-1.2-3-1.3-4.2-.2-1.2 1.1-1.3 3-.2 4.2l3.2 3.5c-1.4-.2-2.7-.3-4.1-.3-18.3 0-33.3 14.9-33.3 33.3 0 7.3 2.3 14.3 6.8 20.1.5.8 1.4 1.2 2.3 1.2z" fill="currentColor" />
</svg>
